<svg width="131" height="32" viewBox="0 0 131 32" fill="none" xmlns="http://www.w3.org/2000/svg">
<path d="M4.104 20.599C4.212 21.049 4.392 21.391 4.644 21.625C4.914 21.859 5.211 22.03 5.535 22.138C5.877 22.228 6.219 22.273 6.561 22.273C7.191 22.273 7.686 22.156 8.046 21.922C8.406 21.67 8.586 21.355 8.586 20.977C8.586 20.653 8.46 20.401 8.208 20.221C7.956 20.023 7.632 19.879 7.236 19.789C6.84 19.681 6.435 19.573 6.021 19.465C5.535 19.339 5.013 19.204 4.455 19.06C3.915 18.898 3.402 18.673 2.916 18.385C2.43 18.097 2.025 17.728 1.701 17.278C1.377 16.81 1.215 16.225 1.215 15.523C1.215 14.695 1.44 13.966 1.89 13.336C2.358 12.706 2.997 12.211 3.807 11.851C4.635 11.491 5.589 11.311 6.669 11.311C7.947 11.311 9.027 11.581 9.909 12.121C10.791 12.661 11.43 13.435 11.826 14.443L8.775 15.307C8.685 15.055 8.532 14.848 8.316 14.686C8.1 14.524 7.839 14.407 7.533 14.335C7.245 14.263 6.948 14.227 6.642 14.227C6.12 14.227 5.688 14.335 5.346 14.551C5.004 14.749 4.833 15.028 4.833 15.388C4.833 15.604 4.896 15.784 5.022 15.928C5.148 16.054 5.319 16.162 5.535 16.252C5.769 16.342 6.03 16.423 6.318 16.495C6.624 16.567 6.957 16.648 7.317 16.738C7.875 16.882 8.433 17.053 8.991 17.251C9.567 17.431 10.089 17.665 10.557 17.953C11.043 18.241 11.43 18.628 11.718 19.114C12.006 19.6 12.168 20.212 12.204 20.95C12.204 21.742 11.979 22.462 11.529 23.11C11.079 23.74 10.431 24.244 9.585 24.622C8.739 25 7.713 25.189 6.507 25.189C5.103 25.189 3.906 24.892 2.916 24.298C1.944 23.704 1.305 22.777 0.999 21.517L4.104 20.599ZM19.1776 25.189C17.8636 25.189 16.7116 24.901 15.7216 24.325C14.7316 23.749 13.9576 22.948 13.3996 21.922C12.8416 20.878 12.5626 19.672 12.5626 18.304C12.5626 16.918 12.8416 15.703 13.3996 14.659C13.9576 13.615 14.7406 12.796 15.7486 12.202C16.7566 11.608 17.9176 11.311 19.2316 11.311C20.6536 11.311 21.9136 11.662 23.0116 12.364C24.1276 13.066 24.9106 14.011 25.3606 15.199L22.1476 16.117C21.9316 15.595 21.5716 15.181 21.0676 14.875C20.5816 14.569 20.0236 14.416 19.3936 14.416C18.7636 14.416 18.2056 14.578 17.7196 14.902C17.2516 15.226 16.8826 15.676 16.6126 16.252C16.3606 16.828 16.2346 17.503 16.2346 18.277C16.2346 19.447 16.5226 20.374 17.0986 21.058C17.6746 21.742 18.4486 22.084 19.4206 22.084C20.0326 22.084 20.5906 21.94 21.0946 21.652C21.5986 21.346 21.9766 20.932 22.2286 20.41L25.4146 21.328C24.9286 22.498 24.1186 23.434 22.9846 24.136C21.8686 24.838 20.5996 25.189 19.1776 25.189ZM26.436 5.56H29.892V12.823C30.306 12.373 30.819 12.013 31.431 11.743C32.061 11.455 32.763 11.311 33.537 11.311C34.563 11.311 35.454 11.536 36.21 11.986C36.984 12.436 37.578 13.093 37.992 13.957C38.406 14.803 38.613 15.856 38.613 17.116V25H34.968V17.575C34.968 16.531 34.761 15.748 34.347 15.226C33.933 14.704 33.312 14.443 32.484 14.443C31.638 14.443 30.99 14.731 30.54 15.307C30.108 15.865 29.892 16.666 29.892 17.71V25H26.436V5.56ZM46.2643 25.189C44.9143 25.189 43.7263 24.892 42.7003 24.298C41.6743 23.704 40.8733 22.876 40.2973 21.814C39.7393 20.752 39.4603 19.528 39.4603 18.142C39.4603 16.81 39.7393 15.631 40.2973 14.605C40.8553 13.579 41.6293 12.778 42.6193 12.202C43.6273 11.608 44.7703 11.311 46.0483 11.311C47.3443 11.311 48.4873 11.59 49.4773 12.148C50.4673 12.706 51.2323 13.489 51.7723 14.497C52.3303 15.487 52.6093 16.648 52.6093 17.98C52.6093 18.178 52.5913 18.403 52.5553 18.655C52.5373 18.889 52.5103 19.141 52.4743 19.411H43.1863C43.2583 19.987 43.4383 20.482 43.7263 20.896C44.0323 21.292 44.4013 21.607 44.8333 21.841C45.2833 22.057 45.7873 22.165 46.3453 22.165C47.0113 22.165 47.6053 22.03 48.1273 21.76C48.6673 21.472 49.0543 21.103 49.2883 20.653L52.3663 21.571C51.8263 22.723 51.0163 23.614 49.9363 24.244C48.8743 24.874 47.6503 25.189 46.2643 25.189ZM48.8293 16.9C48.8113 16.396 48.6763 15.946 48.4243 15.55C48.1723 15.136 47.8393 14.821 47.4253 14.605C47.0113 14.371 46.5523 14.254 46.0483 14.254C45.5983 14.254 45.1753 14.371 44.7793 14.605C44.3833 14.839 44.0413 15.154 43.7533 15.55C43.4833 15.928 43.3033 16.378 43.2133 16.9H48.8293ZM53.6237 11.5H56.7557L56.9987 12.823C57.4307 12.373 57.9437 12.013 58.5377 11.743C59.1497 11.455 59.8157 11.311 60.5357 11.311C61.3997 11.311 62.1917 11.5 62.9117 11.878C63.6317 12.238 64.2077 12.76 64.6397 13.444C65.1257 12.778 65.7557 12.256 66.5297 11.878C67.3217 11.5 68.1767 11.311 69.0947 11.311C70.1567 11.311 71.0747 11.536 71.8487 11.986C72.6407 12.436 73.2527 13.093 73.6847 13.957C74.1167 14.803 74.3327 15.856 74.3327 17.116V25H70.8767V17.575C70.8767 16.549 70.6517 15.775 70.2017 15.253C69.7517 14.731 69.1127 14.47 68.2847 14.47C67.4387 14.47 66.7727 14.74 66.2867 15.28C65.8187 15.82 65.5847 16.603 65.5847 17.629V25H62.1287V17.575C62.1287 16.549 61.9217 15.775 61.5077 15.253C61.1117 14.731 60.4997 14.47 59.6717 14.47C58.8257 14.47 58.1777 14.74 57.7277 15.28C57.2957 15.802 57.0797 16.576 57.0797 17.602V25H53.6237V11.5ZM83.7776 25L83.5076 23.353C83.0576 23.911 82.5446 24.352 81.9686 24.676C81.4106 25 80.6546 25.162 79.7006 25.162C78.8006 25.162 78.0086 25.009 77.3246 24.703C76.6586 24.379 76.1366 23.938 75.7586 23.38C75.3806 22.804 75.1916 22.129 75.1916 21.355C75.1916 20.221 75.5966 19.285 76.4066 18.547C77.2346 17.791 78.4766 17.314 80.1326 17.116L83.5076 16.738V15.793C83.5076 15.415 83.3366 15.064 82.9946 14.74C82.6526 14.416 82.1126 14.254 81.3746 14.254C80.7266 14.254 80.1596 14.416 79.6736 14.74C79.2056 15.046 78.8906 15.514 78.7286 16.144L75.7586 15.064C76.1186 13.858 76.8026 12.931 77.8106 12.283C78.8186 11.635 80.0606 11.311 81.5366 11.311C83.3366 11.311 84.6866 11.761 85.5866 12.661C86.5046 13.543 86.9636 14.713 86.9636 16.171V25H83.7776ZM83.5076 19.141L80.5916 19.519C79.9976 19.591 79.5476 19.771 79.2416 20.059C78.9356 20.329 78.7826 20.662 78.7826 21.058C78.7826 21.436 78.9356 21.76 79.2416 22.03C79.5476 22.282 79.9796 22.408 80.5376 22.408C81.1676 22.408 81.6986 22.291 82.1306 22.057C82.5806 21.823 82.9226 21.481 83.1566 21.031C83.3906 20.581 83.5076 20.023 83.5076 19.357V19.141Z" fill="white"/>
<path d="M100.646 11.5V7.72H104.156V11.5H107.126V14.551H104.156V20.032C104.156 20.734 104.3 21.229 104.588 21.517C104.894 21.805 105.272 21.958 105.722 21.976C106.19 21.994 106.658 21.967 107.126 21.895V24.865C106.298 25.045 105.488 25.099 104.696 25.027C103.922 24.955 103.229 24.748 102.617 24.406C102.005 24.046 101.519 23.506 101.159 22.786C100.817 22.066 100.646 21.148 100.646 20.032V14.551H98.729V11.5H100.646ZM114.097 25.189C112.783 25.189 111.613 24.91 110.587 24.352C109.561 23.776 108.751 22.975 108.157 21.949C107.581 20.905 107.293 19.681 107.293 18.277C107.293 16.855 107.59 15.622 108.184 14.578C108.796 13.534 109.624 12.733 110.668 12.175C111.712 11.599 112.882 11.311 114.178 11.311C115.474 11.311 116.644 11.599 117.688 12.175C118.732 12.733 119.56 13.534 120.172 14.578C120.784 15.604 121.09 16.819 121.09 18.223C121.09 19.645 120.775 20.878 120.145 21.922C119.533 22.966 118.696 23.776 117.634 24.352C116.59 24.91 115.411 25.189 114.097 25.189ZM114.07 22.084C114.628 22.084 115.159 21.949 115.663 21.679C116.167 21.391 116.581 20.968 116.905 20.41C117.229 19.834 117.391 19.105 117.391 18.223C117.391 17.377 117.238 16.675 116.932 16.117C116.626 15.541 116.221 15.118 115.717 14.848C115.231 14.56 114.7 14.416 114.124 14.416C113.566 14.416 113.044 14.56 112.558 14.848C112.09 15.118 111.712 15.541 111.424 16.117C111.154 16.675 111.019 17.395 111.019 18.277C111.019 19.123 111.154 19.834 111.424 20.41C111.694 20.968 112.063 21.391 112.531 21.679C112.999 21.949 113.512 22.084 114.07 22.084ZM122.116 11.5H125.248L125.491 13.228C125.869 12.76 126.292 12.382 126.76 12.094C127.246 11.788 127.777 11.581 128.353 11.473C128.929 11.347 129.532 11.356 130.162 11.5V14.74C129.676 14.578 129.163 14.533 128.623 14.605C128.101 14.677 127.606 14.866 127.138 15.172C126.688 15.478 126.31 15.919 126.004 16.495C125.716 17.053 125.572 17.764 125.572 18.628V25H122.116V11.5Z" fill="white"/>
<rect x="90" y="21.5" width="9" height="3.5" fill="#43D993"/>
</svg>
